<svg id="Capa_1" enable-background="new 0 0 512 512" height="512" viewBox="0 0 512 512" width="512" xmlns="http://www.w3.org/2000/svg"><g><path d="m418.795 95.43v416.57h-398v-512h311.74z" fill="#eaf4f4"/><path d="m418.795 95.43v416.57h-199v-512h112.74z" fill="#cae8ea"/><path d="m297.145 414.7c0 53.65 43.53 97.3 97.03 97.3l20-97.3-20-97.29c-53.5 0-97.03 43.64-97.03 97.29z" fill="#fff4b0"/><path d="m491.205 414.7c0 53.65-43.52 97.3-97.03 97.3v-194.59c53.51 0 97.03 43.64 97.03 97.29z" fill="#ffe26f"/><g><g><path d="m83.195 311.57h171.86v30h-171.86z" fill="#cae8ea"/></g><g><path d="m83.195 251.07h171.86v30h-171.86z" fill="#cae8ea"/></g><g><path d="m83.195 371.57h171.86v30h-171.86z" fill="#cae8ea"/></g></g><g><path d="m379.175 399.7h30v30h-30z" fill="#ffe26f"/></g><path d="m187.425 98.25-56.8 56.8-26.29-26.29-21.21 21.22 47.5 47.5 78.01-78.01z" fill="#00dc7b"/><path d="m394.175 399.7h15v30h-15z" fill="#ffc271"/><g fill="#b3d6e0"><path d="m418.795 95.43v20.59h-107.95v-116.02h21.69z"/><path d="m219.795 251.07h35.26v30h-35.26z"/><path d="m219.795 311.57h35.26v30h-35.26z"/><path d="m219.795 371.57h35.26v30h-35.26z"/></g></g></svg>