<svg id="Capa_1" enable-background="new 0 0 512 512" height="512" viewBox="0 0 512 512" width="512" xmlns="http://www.w3.org/2000/svg"><g><path d="m475.78 321.48c-4.5 15.13-10.55 29.73-18.07 43.62l25.61 25.62-92.6 92.6-25.62-25.61c-13.89 7.52-28.49 13.57-43.62 18.07v36.22h-130.96v-36.22c-15.13-4.5-29.73-10.55-43.62-18.07l-25.62 25.61-92.6-92.6 25.61-25.62c-7.52-13.89-13.57-28.49-18.07-43.62h-36.22v-130.96h36.22c4.5-15.13 10.55-29.73 18.07-43.62l-25.61-25.62 92.6-92.6 25.62 25.61c13.89-7.52 28.49-13.57 43.62-18.07v-36.22h130.96v36.22c15.13 4.5 29.73 10.55 43.62 18.07l25.62-25.61 92.6 92.6-25.61 25.62c7.52 13.89 13.57 28.49 18.07 43.62h36.22v130.96z" fill="#186a81"/><path d="m475.78 321.48c-4.5 15.13-10.55 29.73-18.07 43.62l25.61 25.62-92.6 92.6-25.62-25.61c-13.89 7.52-28.49 13.57-43.62 18.07v36.22h-65.48v-512h65.48v36.22c15.13 4.5 29.73 10.55 43.62 18.07l25.62-25.61 92.6 92.6-25.61 25.62c7.52 13.89 13.57 28.49 18.07 43.62h36.22v130.96z" fill="#00465f"/><path d="m256 416.13c-88.3 0-160.13-71.83-160.13-160.13s71.83-160.13 160.13-160.13l35.843 157.89z" fill="#eaf4f4"/><path d="m416.13 256c0 88.3-71.83 160.13-160.13 160.13v-320.26c88.3 0 160.13 71.83 160.13 160.13z" fill="#cae8ea"/><path d="m308.96 289.22c0 21.84-16.04 40.33-37.96 46.23v16.7h-30v-16.7c-21.92-5.9-37.96-24.39-37.96-46.23h30c0 10.04 10.3 18.22 22.96 18.22s22.96-8.18 22.96-18.22c0-10.05-10.3-18.22-22.96-18.22-29.2 0-52.96-21.63-52.96-48.22 0-21.84 16.04-40.33 37.96-46.23v-16.7h30v16.7c21.92 5.9 37.96 24.39 37.96 46.23h-30c0-10.04-10.3-18.22-22.96-18.22s-22.96 8.18-22.96 18.22c0 10.05 10.3 18.22 22.96 18.22 29.2 0 52.96 21.63 52.96 48.22z" fill="#00dc7b"/><g fill="#00aa8e"><path d="m308.96 289.22c0 21.84-16.04 40.33-37.96 46.23v16.7h-15v-44.71c12.66 0 22.96-8.18 22.96-18.22 0-10.05-10.3-18.22-22.96-18.22v-30c29.2 0 52.96 21.63 52.96 48.22z"/><path d="m256 204.56v-44.71h15v16.7c21.92 5.9 37.96 24.39 37.96 46.23h-30c0-10.04-10.3-18.22-22.96-18.22z"/></g></g></svg>